#!OML:ASF H:\Dans Jumps\Project 1\Capture day 1\Session 1\subject.ASF
:FULLY-SPECIFIED
:DEGREES
642
root 0.0429566 17.7074 2.48446 6.50712 -1.30068 -1.88213
lowerback -4.64052 -0.701975 -0.466873
upperback 1.05046 -0.9605 1.4375
thorax 3.71844 -0.504569 1.66969
lowerneck -11.4517 -3.83175 -4.19267
upperneck 14.4246 -4.9507 3.02327
head 6.45164 -2.3792 1.20587
rclavicle -1.80273e-014 1.76918e-014
rhumerus -28.5636 -20.7091 -78.6861
rradius 21.6482
rwrist 37.0149
rhand -19.9921 -26.1697
rfingers 7.12502
rthumb 6.34749 -56.0546
lclavicle -1.80273e-014 1.76918e-014
lhumerus -25.9298 2.87467 88.6615
lradius 15.8824
lwrist 1.51038
lhand -26.4334 -5.51291
lfingers 7.12502
lthumb 0.127183 24.4668
rfemur -11.2177 -0.460096 18.6296
rtibia 19.7721
rfoot -13.3914 -2.76871
rtoes 9.34599
lfemur -10.3609 6.13331 -15.8365
ltibia 17.7516
lfoot -9.59426 7.92814
ltoes -3.16967
643
root 0.043182 17.7071 2.48619 6.50487 -1.31377 -1.86189
lowerback -4.6609 -0.711146 -0.493634
upperback 1.05197 -0.971021 1.43253
thorax 3.73224 -0.510411 1.67855
lowerneck -11.4211 -3.85324 -4.18693
upperneck 14.3244 -4.98004 3.02613
head 6.41547 -2.39337 1.20421
rclavicle -1.19892e-014 3.27995e-015
rhumerus -28.5865 -20.7328 -78.6733
rradius 21.6443
rwrist 37.0304
rhand -19.9982 -26.1593
rfingers 7.12502
rthumb 6.3416 -56.0444
lclavicle -1.19892e-014 3.27995e-015
lhumerus -25.9294 2.86051 88.6698
lradius 15.8823
lwrist 1.4959
lhand -26.4507 -5.57061
lfingers 7.12502
lthumb 0.110474 24.4091
rfemur -11.2206 -0.466385 18.6052
rtibia 19.7915
rfoot -13.406 -2.75372
rtoes 9.33481
lfemur -10.3387 6.13282 -15.8601
ltibia 17.7319
lfoot -9.59252 7.93882
ltoes -3.16175
644
root 0.0435365 17.707 2.48786 6.50413 -1.32622 -1.83772
lowerback -4.68281 -0.720154 -0.523788
upperback 1.0522 -0.981093 1.42751
thorax 3.74562 -0.516098 1.68928
lowerneck -11.384 -3.87479 -4.18831
upperneck 14.223 -5.00919 3.03397
head 6.37812 -2.40752 1.20545
rclavicle -9.18137e-015 1.38155e-014
rhumerus -28.6084 -20.7568 -78.6571
rradius 21.6363
rwrist 37.0478
rhand -19.9933 -26.1642
rfingers 7.12502
rthumb 6.3463 -56.0491
lclavicle -9.18137e-015 1.38155e-014
lhumerus -25.927 2.85324 88.6782
lradius 15.8824
lwrist 1.47461
lhand -26.4687 -5.61246
lfingers 7.12502
lthumb 0.0930325 24.3673
rfemur -11.2233 -0.475447 18.5759
rtibia 19.8072
rfoot -13.4187 -2.73659
rtoes 9.32435
lfemur -10.3195 6.13193 -15.8889
ltibia 17.7144
lfoot -9.59181 7.94957
ltoes -3.15583
645
root 0.0439432 17.7069 2.48948 6.50136 -1.33755 -1.8291
lowerback -4.70104 -0.728155 -0.537396
upperback 1.05209 -0.990964 1.42696
thorax 3.75638 -0.521356 1.69538
lowerneck -11.3432 -3.89579 -4.19086
upperneck 14.1234 -5.03761 3.04206
head 6.34074 -2.4214 1.2071
rclavicle -2.36057e-015 1.2921e-014
rhumerus -28.63 -20.7834 -78.6378
rradius 21.6235
rwrist 37.0666
rhand -19.9807 -26.1766
rfingers 7.12502
rthumb 6.3584 -56.0612
lclavicle -2.36057e-015 1.2921e-014
lhumerus -25.9234 2.85061 88.686
lradius 15.885
lwrist 1.4548
lhand -26.4908 -5.63981
lfingers 7.12502
lthumb 0.0717274 24.3399
rfemur -11.2175 -0.480918 18.5637
rtibia 19.8115
rfoot -13.4263 -2.72141
rtoes 9.32393
lfemur -10.303 6.12997 -15.9
ltibia 17.7067
lfoot -9.59579 7.96278
ltoes -3.15408
646
root 0.0444018 17.7068 2.49103 6.49509 -1.34689 -1.83587
lowerback -4.71417 -0.735055 -0.534542
upperback 1.05242 -1.00052 1.43089
thorax 3.76447 -0.526133 1.69693
lowerneck -11.3032 -3.91663 -4.19823
upperneck 14.0307 -5.06561 3.05338
head 6.30594 -2.43508 1.21058
rclavicle 2.09966e-015 -1.86858e-014
rhumerus -28.6515 -20.8126 -78.6158
rradius 21.6083
rwrist 37.0879
rhand -19.9638 -26.1963
rfingers 7.12502
rthumb 6.37476 -56.0804
lclavicle 2.09966e-015 -1.86858e-014
lhumerus -25.9172 2.8508 88.6932
lradius 15.8864
lwrist 1.43084
lhand -26.514 -5.66121
lfingers 7.12502
lthumb 0.0493006 24.3185
rfemur -11.2012 -0.483899 18.5687
rtibia 19.804
rfoot -13.4276 -2.70938
rtoes 9.32149
lfemur -10.2882 6.12791 -15.8933
ltibia 17.7097
lfoot -9.60392 7.97549
ltoes -3.15267
647
root 0.0448546 17.7067 2.49251 6.48432 -1.35515 -1.85946
lowerback -4.72011 -0.740902 -0.513974
upperback 1.05177 -1.00991 1.43949
thorax 3.76727 -0.53045 1.69344
lowerneck -11.2593 -3.93517 -4.2068
upperneck 13.9428 -5.09055 3.06475
head 6.27194 -2.44737 1.2146
rclavicle 8.28684e-015 -1.2921e-015
rhumerus -28.673 -20.8396 -78.5917
rradius 21.5861
rwrist 37.11
rhand -19.9475 -26.2152
rfingers 7.12502
rthumb 6.39046 -56.0988
lclavicle 8.28684e-015 -1.2921e-015
lhumerus -25.9131 2.85829 88.6983
lradius 15.8911
lwrist 1.41088
lhand -26.5455 -5.69098
lfingers 7.12502
lthumb 0.0189133 24.2888
rfemur -11.1728 -0.478665 18.5926
rtibia 19.7831
rfoot -13.4235 -2.7038
rtoes 9.32512
lfemur -10.275 6.12473 -15.867
ltibia 17.7256
lfoot -9.61607 7.99089
ltoes -3.15331
648
root 0.0453453 17.7066 2.49387 6.47308 -1.36193 -1.88421
lowerback -4.7247 -0.745653 -0.490236
upperback 1.0506 -1.01799 1.44736
thorax 3.76866 -0.534029 1.68755
lowerneck -11.2191 -3.95384 -4.21195
upperneck 13.8629 -5.11585 3.07319
head 6.241 -2.45984 1.21701
rclavicle 1.06971e-014 -1.32192e-014
rhumerus -28.6981 -20.8696 -78.5663
rradius 21.5646
rwrist 37.1348
rhand -19.9326 -26.2374
rfingers 7.12502
rthumb 6.40487 -56.1206
lclavicle 1.06971e-014 -1.32192e-014
lhumerus -25.9056 2.86732 88.7015
lradius 15.8935
lwrist 1.39135
lhand -26.5773 -5.72452
lfingers 7.12502
lthumb -0.0118248 24.2552
rfemur -11.1409 -0.474583 18.6179
rtibia 19.7554
rfoot -13.4158 -2.69957
rtoes 9.32283
lfemur -10.2658 6.1202 -15.8392
ltibia 17.7487
lfoot -9.63026 8.00645
ltoes -3.15363
649
root 0.0458624 17.7064 2.49508 6.4591 -1.36799 -1.91454
lowerback -4.72475 -0.749971 -0.460533
upperback 1.04984 -1.02592 1.45722
thorax 3.76782 -0.537416 1.6804
lowerneck -11.1847 -3.97292 -4.21218
upperneck 13.7903 -5.14115 3.07282
head 6.21302 -2.47267 1.2157
rclavicle 5.24295e-015 -1.09332e-014
rhumerus -28.7226 -20.9029 -78.5385
rradius 21.5408
rwrist 37.1661
rhand -19.9208 -26.2551
rfingers 7.12502
rthumb 6.41632 -56.1379
lclavicle 5.24295e-015 -1.09332e-014
lhumerus -25.8941 2.88071 88.7044
lradius 15.8956
lwrist 1.38106
lhand -26.6041 -5.76381
lfingers 7.12502
lthumb -0.0376917 24.2159
rfemur -11.1061 -0.468787 18.6495
rtibia 19.727
rfoot -13.4068 -2.69787
rtoes 9.3174
lfemur -10.255 6.11522 -15.8049
ltibia 17.7736
lfoot -9.64436 8.02222
ltoes -3.15653
